<svg width="108" height="153" viewBox="0 0 108 153" fill="none" xmlns="http://www.w3.org/2000/svg">
<circle cx="21" cy="66.5" r="86.5" fill="#E7A5C8"/>
<path d="M67.8335 67.8581V72.8164C67.8335 82.0039 62.5835 85.9414 54.7085 85.9414H28.4585C20.5835 85.9414 15.3335 82.0039 15.3335 72.8164V57.0664C15.3335 47.8789 20.5835 43.9414 28.4585 43.9414H36.3335C35.9543 45.0497 35.7502 46.2747 35.7502 47.5872V58.9622C35.7502 61.7914 36.6835 64.1831 38.346 65.8456C40.0085 67.5081 42.4002 68.4414 45.2293 68.4414V72.4956C45.2293 73.9831 46.921 74.8872 48.1752 74.0706L56.6043 68.4414H64.1877C65.5002 68.4414 66.7252 68.2372 67.8335 67.8581Z" stroke="#312E3A" stroke-width="1.5" stroke-miterlimit="10" stroke-linecap="round" stroke-linejoin="round"/>
<path d="M31.0835 96.4388H52.0835M41.5835 85.9388V96.4388M73.6668 47.5846V58.9596C73.6668 63.3055 71.4502 66.5721 67.8335 67.8555C66.7252 68.2346 65.5002 68.4388 64.1877 68.4388H56.6043L48.1752 74.068C46.921 74.8846 45.2293 73.9805 45.2293 72.493V68.4388C42.4002 68.4388 40.0085 67.5055 38.346 65.843C36.6835 64.1805 35.7502 61.7888 35.7502 58.9596V47.5846C35.7502 46.2721 35.9543 45.0471 36.3335 43.9388C37.6168 40.3221 40.8835 38.1055 45.2293 38.1055H64.1877C69.8752 38.1055 73.6668 41.8971 73.6668 47.5846Z" stroke="#312E3A" stroke-width="1.5" stroke-miterlimit="10" stroke-linecap="round" stroke-linejoin="round"/>
<path d="M51.0488 49.2754L47.7889 52.5354C47.4039 52.9204 47.4039 53.5503 47.7889 53.9353L51.0488 57.1953" stroke="#312E3A" stroke-miterlimit="10" stroke-linecap="round" stroke-linejoin="round"/>
<path d="M58.5001 49.2754L61.7601 52.5354C62.1451 52.9204 62.1451 53.5503 61.7601 53.9353L58.5001 57.1953M57 49.2754L53.5 56.7773" stroke="#312E3A" stroke-miterlimit="10" stroke-linecap="round" stroke-linejoin="round"/>
</svg>
