<svg width="107" height="153" viewBox="0 0 107 153" fill="none" xmlns="http://www.w3.org/2000/svg">
<circle cx="20.5" cy="66.5" r="86.5" fill="#E7A5C8"/>
<path d="M41.0834 45.1263H29.4167M58.5834 49.5013V78.668C58.5834 90.3346 55.6667 93.2513 44.0001 93.2513H26.5001C14.8334 93.2513 11.9167 90.3346 11.9167 78.668V49.5013C11.9167 37.8346 14.8334 34.918 26.5001 34.918H44.0001C55.6667 34.918 58.5834 37.8346 58.5834 49.5013Z" stroke="#312E3A" stroke-width="1.5" stroke-linecap="round" stroke-linejoin="round"/>
<path d="M35.2501 84.7917C36.4491 84.7917 37.599 84.3154 38.4468 83.4675C39.2946 82.6197 39.7709 81.4698 39.7709 80.2708C39.7709 79.0718 39.2946 77.9219 38.4468 77.0741C37.599 76.2263 36.4491 75.75 35.2501 75.75C34.0511 75.75 32.9012 76.2263 32.0534 77.0741C31.2055 77.9219 30.7292 79.0718 30.7292 80.2708C30.7292 81.4698 31.2055 82.6197 32.0534 83.4675C32.9012 84.3154 34.0511 84.7917 35.2501 84.7917Z" stroke="#312E3A" stroke-width="1.5" stroke-linecap="round" stroke-linejoin="round"/>
</svg>
