<svg width="625" height="537" viewBox="0 0 625 537" fill="none" xmlns="http://www.w3.org/2000/svg">
<path d="M35.2438 344.957L116.308 79.5676C117.489 76.0317 119.76 72.9603 122.793 70.7934C125.827 68.6265 129.468 67.4753 133.196 67.5044L612.827 81.0151C614.693 81.0347 616.529 81.4835 618.194 82.3268C619.859 83.1702 621.307 84.3854 622.427 85.8783C623.546 87.3713 624.307 89.1019 624.651 90.9361C624.994 92.7704 624.911 94.6591 624.407 96.456L530.315 420.23C529.178 424.183 526.641 427.588 523.178 429.807C519.715 432.027 515.563 432.911 511.496 432.294L45.8594 360.397C44.0514 360.3 42.2897 359.789 40.7105 358.904C39.1312 358.018 37.7765 356.782 36.7508 355.29C35.725 353.798 35.0559 352.09 34.7946 350.299C34.5333 348.507 34.6869 346.679 35.2438 344.957Z" fill="#312E3A"/>
<path d="M30.8996 358.473L-248 384.529L230.183 502.265C241.745 505.166 253.845 505.166 265.407 502.265L525.006 435.194L30.8996 358.473Z" fill="#63737A"/>
<path d="M230.666 502.256L-247.517 384.52C-247.484 388.932 -246.003 393.211 -243.3 396.699C-240.597 400.186 -236.823 402.688 -232.558 403.821L218.121 523.487C237.145 528.478 257.176 528.144 276.024 522.522L512.461 453.038C516.42 451.9 519.892 449.485 522.335 446.168C524.779 442.852 526.057 438.821 525.972 434.702L266.373 501.773C254.719 505.06 242.405 505.226 230.666 502.256Z" fill="#312E3A"/>
<path d="M350.331 126.38L316.554 241.221C316.059 242.621 315.146 243.835 313.937 244.699C312.729 245.562 311.284 246.032 309.799 246.047L120.166 229.641C119.21 229.568 118.282 229.284 117.447 228.811C116.613 228.337 115.894 227.686 115.341 226.902C114.787 226.118 114.414 225.222 114.248 224.278C114.081 223.333 114.125 222.363 114.376 221.438L146.223 116.247C146.615 114.878 147.436 113.67 148.565 112.802C149.694 111.933 151.071 111.449 152.496 111.422L344.058 118.177C345.047 118.208 346.016 118.458 346.896 118.909C347.775 119.361 348.543 120.003 349.144 120.788C349.745 121.574 350.163 122.483 350.368 123.45C350.573 124.418 350.561 125.418 350.331 126.38Z" fill="#FDFDFE"/>
<path d="M203.645 288.017L189.652 331.445C189.157 332.91 188.157 334.151 186.831 334.947C185.505 335.743 183.939 336.04 182.414 335.787L91.2165 323.724C90.2805 323.636 89.3768 323.337 88.573 322.849C87.7691 322.361 87.0861 321.698 86.5753 320.909C86.0645 320.119 85.7392 319.225 85.6237 318.292C85.5083 317.359 85.6059 316.411 85.9088 315.521L97.972 274.989C98.4669 273.589 99.3805 272.375 100.589 271.512C101.797 270.649 103.242 270.178 104.727 270.164L197.855 279.815C198.852 279.775 199.843 279.986 200.738 280.427C201.633 280.869 202.403 281.527 202.979 282.343C203.554 283.158 203.917 284.104 204.033 285.095C204.149 286.087 204.016 287.091 203.645 288.017Z" fill="#FFC84D"/>
<path d="M346.473 302.493L331.032 350.263C330.538 351.728 329.538 352.969 328.212 353.765C326.886 354.561 325.32 354.859 323.794 354.606L236.94 343.025C235.97 342.903 235.04 342.563 234.219 342.033C233.398 341.502 232.707 340.793 232.197 339.959C231.687 339.125 231.372 338.186 231.274 337.214C231.176 336.241 231.299 335.259 231.632 334.34L246.108 289.465C246.548 288.065 247.465 286.864 248.7 286.07C249.934 285.277 251.407 284.941 252.863 285.122L340.683 293.807C341.695 293.862 342.681 294.151 343.561 294.653C344.442 295.155 345.193 295.855 345.755 296.699C346.317 297.542 346.675 298.505 346.8 299.511C346.924 300.517 346.813 301.538 346.473 302.493Z" fill="#2FA4A1"/>
<path d="M454.076 149.539C452.177 156.736 447.904 163.082 441.949 167.548C435.994 172.014 428.706 174.339 421.265 174.147C407.271 173.182 400.034 161.119 403.894 147.608C406.027 141.169 410.086 135.54 415.523 131.484C420.96 127.427 427.513 125.14 434.293 124.93C437.361 124.807 440.415 125.405 443.21 126.675C446.005 127.946 448.463 129.855 450.387 132.248C452.311 134.641 453.647 137.452 454.288 140.455C454.928 143.458 454.856 146.569 454.076 149.539Z" fill="#FFC84D"/>
<path d="M378.319 225.285L529.35 235.901" stroke="#63737A" stroke-width="1.8" stroke-linecap="round" stroke-linejoin="round"/>
<path d="M546.085 180.455C546.086 178.257 545.435 176.109 544.215 174.281C542.995 172.453 541.26 171.029 539.23 170.187C537.2 169.345 534.966 169.125 532.811 169.553C530.655 169.981 528.675 171.039 527.121 172.592C525.567 174.146 524.508 176.125 524.079 178.281C523.65 180.436 523.87 182.67 524.71 184.7C525.551 186.731 526.975 188.466 528.802 189.687C530.629 190.908 532.778 191.56 534.975 191.56C536.438 191.575 537.889 191.297 539.243 190.745C540.597 190.192 541.828 189.374 542.862 188.34C543.897 187.306 544.715 186.076 545.268 184.722C545.821 183.368 546.099 181.918 546.085 180.455Z" fill="#2FA4A1"/>
<path d="M599.65 59.9287C600.28 68.7713 599.097 77.6493 596.174 86.0184C593.25 94.3875 588.649 102.071 582.65 108.599C570.247 122.026 563.37 139.64 563.395 157.919V169.349C563.359 172.37 562.142 175.257 560.006 177.393C557.869 179.528 554.981 180.744 551.96 180.779H518.645C515.625 180.742 512.739 179.527 510.603 177.391C508.467 175.255 507.252 172.369 507.215 169.349V157.919C507.215 139.624 500.355 121.989 487.945 108.919C476.768 96.9621 470.575 81.1909 470.63 64.8237C470.63 27.5937 502.315 -2.45632 539.895 0.158682C571.56 2.11868 597.365 27.9187 599.65 59.9287Z" fill="#FFC84D"/>
<path d="M506.89 157.918H563.065" stroke="#312E3A" stroke-width="5.88" stroke-linecap="round" stroke-linejoin="round"/>
<path d="M506.89 169.023H563.065" stroke="#312E3A" stroke-width="5.88" stroke-linecap="round" stroke-linejoin="round"/>
<path d="M529.1 157.919V68.4193C529.1 60.2493 519.955 55.3543 513.1 59.9193C507.87 63.5143 507.22 71.3493 512.1 75.9193L516.02 79.5143" stroke="#312E3A" stroke-width="5.88" stroke-linecap="round" stroke-linejoin="round"/>
<path d="M540.855 157.919V68.4193C540.855 60.2493 550 55.3543 556.855 59.9193C562.08 63.5143 562.735 71.3493 557.855 75.9193L553.935 79.5143" stroke="#312E3A" stroke-width="5.88" stroke-linecap="round" stroke-linejoin="round"/>
<path d="M266.111 120.557C266.858 120.615 267.604 120.761 268.35 120.994C275.702 123.161 279.174 131.542 275.531 138.261L234.932 212.903C233.608 215.364 231.681 217.357 229.404 218.763C229.124 218.928 228.819 219.089 228.539 219.254C225.877 220.67 222.811 221.303 219.671 220.993C213.224 220.355 207.814 215.79 206.127 209.528L196.635 174.565L192.765 213.726C192.384 217.576 190.49 220.94 187.698 223.183C184.949 225.479 181.323 226.68 177.491 226.325C169.731 225.606 164.075 218.185 164.84 210.438L171.865 139.364C172.49 133.043 178.133 128.442 184.438 129.065L199.306 130.534C203.945 130.993 207.833 134.185 209.173 138.612L219.496 172.218C220.838 176.621 226.854 177.24 229.033 173.184L233.957 164.193L254.352 126.761C256.699 122.458 261.377 120.089 266.111 120.557Z" fill="url(#paint0_linear_1116_4441)"/>
<path d="M252.934 194.335L279.183 146.276C280.09 144.638 282.607 145.414 282.424 147.268L275.052 221.859C274.288 229.582 267.414 235.213 259.682 234.449C251.951 233.685 246.312 226.817 247.075 219.094L247.919 210.563C248.48 204.884 250.179 199.365 252.934 194.335Z" fill="#FFC84D"/>
<path d="M458.409 532.408L360.566 512.404C358.957 512.069 357.43 511.418 356.075 510.488C354.72 509.559 353.563 508.369 352.671 506.988C351.779 505.607 351.17 504.063 350.88 502.445C350.59 500.828 350.625 499.168 350.981 497.564L394.505 297.183C395.267 293.835 397.206 290.872 399.969 288.833C402.732 286.794 406.135 285.814 409.56 286.072L511.412 294.188C513.174 294.344 514.884 294.872 516.426 295.738C517.969 296.604 519.31 297.788 520.361 299.211C521.412 300.635 522.148 302.266 522.521 303.995C522.893 305.725 522.894 307.514 522.523 309.244L475.5 521.584C474.585 525.237 472.3 528.398 469.119 530.413C465.938 532.428 462.103 533.143 458.409 532.408Z" fill="#312E3A"/>
<path d="M451.542 531.44L353.698 511.435C352.089 511.1 350.563 510.449 349.207 509.52C347.852 508.59 346.695 507.4 345.803 506.019C344.911 504.639 344.303 503.095 344.013 501.477C343.723 499.859 343.757 498.2 344.114 496.595L387.637 296.215C388.4 292.867 390.339 289.903 393.102 287.864C395.865 285.825 399.268 284.845 402.692 285.104L504.544 293.22C506.307 293.375 508.016 293.903 509.559 294.769C511.102 295.635 512.443 296.819 513.493 298.243C514.544 299.666 515.28 301.297 515.653 303.026C516.026 304.756 516.027 306.545 515.656 308.275L468.632 520.615C467.717 524.268 465.433 527.43 462.251 529.445C459.07 531.46 455.235 532.174 451.542 531.44Z" fill="#596773"/>
<path d="M451.861 309.924L432.893 308.29C432.55 308.265 432.216 308.167 431.914 308.002C431.612 307.837 431.349 307.61 431.142 307.335C430.935 307.06 430.789 306.744 430.714 306.409C430.639 306.073 430.637 305.725 430.707 305.388C430.818 304.649 431.215 303.983 431.812 303.533C432.409 303.084 433.159 302.886 433.9 302.984L452.868 304.617C453.211 304.643 453.544 304.741 453.846 304.906C454.148 305.071 454.412 305.298 454.619 305.573C454.826 305.848 454.971 306.163 455.046 306.499C455.121 306.835 455.124 307.183 455.053 307.519C454.943 308.258 454.546 308.925 453.949 309.374C453.352 309.824 452.602 310.021 451.861 309.924Z" fill="#312E3A"/>
<path d="M462.871 310.966L462.362 310.894C462.019 310.869 461.685 310.771 461.383 310.606C461.081 310.441 460.818 310.214 460.611 309.939C460.404 309.664 460.258 309.348 460.183 309.013C460.108 308.677 460.106 308.329 460.176 307.992C460.382 307.23 460.836 306.557 461.467 306.082C462.098 305.607 462.869 305.356 463.659 305.369L464.168 305.441C464.511 305.466 464.844 305.565 465.146 305.73C465.448 305.894 465.711 306.122 465.918 306.397C466.125 306.671 466.271 306.987 466.346 307.323C466.421 307.659 466.424 308.006 466.353 308.343C466.148 309.106 465.694 309.778 465.063 310.253C464.432 310.728 463.66 310.979 462.871 310.966Z" fill="#312E3A"/>
<path d="M428.527 341.145L403.235 338.361C402.619 338.283 402.028 338.074 401.5 337.748C400.972 337.421 400.519 336.986 400.174 336.47C399.829 335.954 399.598 335.37 399.497 334.758C399.397 334.145 399.429 333.518 399.591 332.919C399.908 331.634 400.659 330.498 401.716 329.701C402.773 328.905 404.073 328.498 405.395 328.548L430.723 331.077C431.339 331.155 431.931 331.364 432.459 331.69C432.987 332.017 433.439 332.452 433.784 332.968C434.13 333.484 434.36 334.068 434.461 334.68C434.561 335.293 434.53 335.92 434.367 336.519C434.141 337.877 433.418 339.103 432.339 339.958C431.26 340.812 429.901 341.236 428.527 341.145Z" fill="#312E3A"/>
<path d="M409.589 427.722L384.695 423.957C384.098 423.839 383.53 423.605 383.023 423.268C382.517 422.931 382.082 422.497 381.743 421.992C381.405 421.486 381.169 420.919 381.051 420.322C380.932 419.725 380.932 419.111 381.051 418.514C381.372 417.258 382.128 416.156 383.183 415.402C384.239 414.649 385.527 414.293 386.819 414.397L411.714 418.162C412.321 418.259 412.901 418.48 413.419 418.812C413.936 419.144 414.38 419.578 414.722 420.089C415.064 420.6 415.297 421.176 415.406 421.781C415.516 422.385 415.499 423.006 415.358 423.604C415.081 424.885 414.336 426.017 413.27 426.778C412.203 427.54 410.891 427.876 409.589 427.722Z" fill="#312E3A"/>
<path d="M394.289 497.698L369.538 492.916C368.922 492.787 368.339 492.536 367.822 492.178C367.306 491.819 366.866 491.361 366.53 490.83C366.193 490.299 365.967 489.705 365.864 489.085C365.761 488.465 365.783 487.83 365.93 487.219C366.157 485.985 366.856 484.888 367.879 484.16C368.901 483.432 370.167 483.131 371.408 483.321L396.195 487.849C396.821 487.957 397.417 488.195 397.945 488.548C398.474 488.9 398.923 489.36 399.263 489.896C399.602 490.433 399.826 491.035 399.919 491.664C400.012 492.292 399.973 492.933 399.803 493.545C399.622 494.827 398.94 495.985 397.906 496.764C396.872 497.543 395.571 497.879 394.289 497.698Z" fill="#312E3A"/>
<path d="M466.654 403.848L392.337 393.642C391.59 393.54 390.873 393.283 390.231 392.887C389.59 392.491 389.038 391.965 388.613 391.343C388.187 390.721 387.896 390.016 387.76 389.275C387.623 388.534 387.643 387.772 387.819 387.039L394.658 355.054C394.934 353.773 395.679 352.641 396.746 351.88C397.812 351.119 399.125 350.782 400.426 350.937L475.249 359.398C475.996 359.499 476.713 359.756 477.354 360.152C477.996 360.548 478.547 361.074 478.973 361.697C479.399 362.319 479.689 363.023 479.826 363.765C479.963 364.506 479.943 365.268 479.767 366.001L472.459 399.476C472.269 400.826 471.55 402.044 470.462 402.864C469.373 403.684 468.004 404.038 466.654 403.848Z" fill="#2FA4A1"/>
<path d="M401.684 470.97L376.388 466.37C375.664 466.244 374.974 465.97 374.361 465.565C373.748 465.16 373.225 464.632 372.825 464.016C372.425 463.4 372.156 462.707 372.035 461.982C371.915 461.258 371.945 460.516 372.124 459.803L376.373 440.684C376.5 440.02 376.756 439.388 377.128 438.823C377.499 438.259 377.978 437.773 378.538 437.394C379.097 437.015 379.726 436.75 380.388 436.614C381.05 436.479 381.733 436.475 382.396 436.603L408.018 440.73C409.487 441.017 410.784 441.871 411.629 443.106C412.475 444.342 412.8 445.86 412.536 447.333L408.216 466.961C407.79 468.302 406.896 469.446 405.697 470.182C404.497 470.918 403.073 471.198 401.684 470.97Z" fill="#FFC84D"/>
<path d="M449.802 479.304L422.726 474.454C422.002 474.327 421.312 474.053 420.699 473.648C420.086 473.243 419.563 472.716 419.163 472.1C418.762 471.483 418.494 470.791 418.373 470.066C418.253 469.341 418.283 468.599 418.462 467.886L422.819 448.005C422.945 447.341 423.202 446.708 423.573 446.144C423.945 445.579 424.424 445.094 424.983 444.714C425.543 444.335 426.171 444.07 426.833 443.935C427.496 443.799 428.178 443.795 428.841 443.923L456.244 448.301C457.713 448.588 459.01 449.442 459.855 450.677C460.7 451.913 461.026 453.431 460.762 454.904L456.334 475.295C455.918 476.642 455.026 477.793 453.824 478.53C452.622 479.268 451.192 479.543 449.802 479.304Z" fill="#E7A5C8"/>
<defs>
<linearGradient id="paint0_linear_1116_4441" x1="258.917" y1="218.129" x2="201.287" y2="151.031" gradientUnits="userSpaceOnUse">
<stop stop-color="#228C92"/>
<stop offset="0.3" stop-color="#1A7277"/>
<stop offset="0.5" stop-color="#1D7577"/>
<stop offset="0.8" stop-color="#2A8F8D"/>
<stop offset="1" stop-color="#39ADA5"/>
</linearGradient>
</defs>
</svg>
