<svg width="107" height="153" viewBox="0 0 107 153" fill="none" xmlns="http://www.w3.org/2000/svg">
<circle cx="20.5" cy="66.5" r="86.5" fill="#E7A5C8"/>
<path d="M17.7792 64.7266V77.8224C17.7792 90.9182 23.0292 96.1682 36.125 96.1682H51.8458C64.9417 96.1682 70.1917 90.9182 70.1917 77.8224V64.7266" stroke="#312E3A" stroke-width="1.5" stroke-linecap="round" stroke-linejoin="round"/>
<path d="M44 66.9987C49.3375 66.9987 53.275 62.6529 52.75 57.3154L50.825 37.832H37.2041L35.25 57.3154C34.725 62.6529 38.6625 66.9987 44 66.9987Z" stroke="#312E3A" stroke-width="1.5" stroke-linecap="round" stroke-linejoin="round"/>
<path d="M62.4042 66.9987C68.2959 66.9987 72.6125 62.2154 72.0292 56.3529L71.2125 48.332C70.1625 40.7487 67.2459 37.832 59.6042 37.832H50.7084L52.75 58.2779C53.2459 63.0904 57.5917 66.9987 62.4042 66.9987ZM25.45 66.9987C30.2625 66.9987 34.6084 63.0904 35.075 58.2779L35.7167 51.832L37.1167 37.832H28.2209C20.5792 37.832 17.6625 40.7487 16.6125 48.332L15.825 56.3529C15.2417 62.2154 19.5584 66.9987 25.45 66.9987ZM44 81.582C39.1292 81.582 36.7084 84.0029 36.7084 88.8737V96.1654H51.2917V88.8737C51.2917 84.0029 48.8709 81.582 44 81.582Z" stroke="#312E3A" stroke-width="1.5" stroke-linecap="round" stroke-linejoin="round"/>
</svg>
