<svg width="108" height="153" viewBox="0 0 108 153" fill="none" xmlns="http://www.w3.org/2000/svg">
<circle cx="21" cy="66.5" r="86.5" fill="#FFC84D"/>
<path d="M59.083 58.2487C59.083 69.5362 49.283 78.6654 37.208 78.6654L34.4955 81.932L32.8913 83.857C31.5205 85.4904 28.8955 85.1404 27.9913 83.1862L24.083 74.582C18.7747 70.8487 15.333 64.9279 15.333 58.2487C15.333 46.9612 25.133 37.832 37.208 37.832C46.0163 37.832 53.6288 42.7029 57.0413 49.7029C58.3538 52.2987 59.083 55.1862 59.083 58.2487Z" stroke="#312E3A" stroke-width="1.5" stroke-linecap="round" stroke-linejoin="round"/>
<path d="M29.917 58.249H44.5003M73.667 69.5073C73.667 76.1865 70.2253 82.1073 64.917 85.8406L61.0087 94.4448C60.1045 96.399 57.4795 96.7781 56.1087 95.1156L51.792 89.924C44.7337 89.924 38.4337 86.8031 34.4962 81.9323L37.2087 78.6656C49.2837 78.6656 59.0837 69.5365 59.0837 58.249C59.0837 55.1865 58.3545 52.299 57.042 49.7031C66.5795 51.8906 73.667 59.9406 73.667 69.5073Z" stroke="#312E3A" stroke-width="1.5" stroke-linecap="round" stroke-linejoin="round"/>
</svg>
