<svg width="107" height="153" viewBox="0 0 107 153" fill="none" xmlns="http://www.w3.org/2000/svg">
<circle cx="20.5" cy="66.5" r="86.5" fill="#FFC84D"/>
<path d="M43.9997 48.0128V91.7628M31.6038 56.7628H25.0413M33.7913 65.5128H25.0413M73.1663 80.8253V45.6211C73.1663 42.1211 70.308 39.5253 66.8372 39.8169H66.6622C60.5372 40.3419 51.233 43.4628 46.0413 46.7294L45.5455 47.0503C44.6997 47.5753 43.2997 47.5753 42.4538 47.0503L41.7247 46.6128C36.533 43.3753 27.258 40.2836 21.133 39.7878C17.6622 39.4961 14.833 42.1211 14.833 45.5919V80.8253C14.833 83.6253 17.108 86.2503 19.908 86.6003L20.7538 86.7169C27.083 87.5628 36.8538 90.7711 42.4538 93.8336L42.5705 93.8919C43.358 94.3294 44.6122 94.3294 45.3705 93.8919C50.9705 90.8003 60.7705 87.5628 67.1288 86.7169L68.0913 86.6003C70.8913 86.2503 73.1663 83.6253 73.1663 80.8253Z" stroke="#312E3A" stroke-width="1.5" stroke-linecap="round" stroke-linejoin="round"/>
</svg>
