<svg width="605" height="533" viewBox="0 0 605 533" fill="none" xmlns="http://www.w3.org/2000/svg">
<path d="M511.738 532.058L35.6284 505.425C32.7585 505.265 29.9502 504.528 27.3724 503.256C24.7946 501.984 22.5003 500.205 20.6271 498.025C18.754 495.845 17.3405 493.308 16.4717 490.568C15.6029 487.828 15.2966 484.941 15.5712 482.08L56.3431 66.1419C57.0317 59.5198 59.9981 53.3423 64.7358 48.6646C69.4735 43.9869 75.6882 41.0993 82.3185 40.4952L581.444 2.35379C584.605 2.09126 587.785 2.54339 590.748 3.67666C593.71 4.80994 596.38 6.59533 598.559 8.90053C600.738 11.2057 602.37 13.9717 603.335 16.9934C604.299 20.0152 604.572 23.2152 604.132 26.3565L541.659 507.398C540.643 514.498 537.011 520.964 531.476 525.526C525.941 530.088 518.901 532.417 511.738 532.058Z" fill="#63737A"/>
<path d="M498.585 532.068L20.1746 505.434C17.2951 505.303 14.4728 504.583 11.8815 503.321C9.29011 502.058 6.98439 500.279 5.10589 498.092C3.22738 495.906 1.81574 493.358 0.957898 490.606C0.100055 487.854 -0.185961 484.956 0.117423 482.089L40.8893 64.1786C41.5398 57.4861 44.5378 51.2397 49.3522 46.5456C54.1667 41.8515 60.4868 39.0127 67.1937 38.5318L568.621 0.061658C571.791 -0.178718 574.974 0.285644 577.944 1.42141C580.913 2.55717 583.594 4.33618 585.794 6.63073C587.994 8.92528 589.659 11.6784 590.67 14.6927C591.68 17.7069 592.01 20.9074 591.637 24.0644L528.836 507.407C527.643 514.488 523.917 520.894 518.352 525.431C512.786 529.968 505.761 532.327 498.585 532.068Z" fill="#312E3A"/>
<path d="M489.707 325.907L482.802 380.16L415.068 378.844L421.316 325.578L489.707 325.907Z" fill="#E7A5C8"/>
<path d="M353.583 325.25L347.336 377.53L278.287 376.543L283.877 325.25H353.583Z" fill="#2FA4A1"/>
<path d="M415.068 378.846L408.492 431.784L341.087 429.482L347.334 377.531L415.068 378.846Z" fill="#FFC84D"/>
<path d="M143.148 90.1587L86.9224 93.4467C85.9658 93.4381 85.0508 93.0544 84.3743 92.3779C83.6979 91.7015 83.3142 90.7865 83.3057 89.8299L84.292 80.2945C84.4939 78.9715 85.1131 77.7476 86.0595 76.8012C87.0058 75.8549 88.2298 75.2356 89.5528 75.0337L146.107 71.4168C146.595 71.365 147.088 71.423 147.55 71.5864C148.013 71.7499 148.433 72.0147 148.779 72.3615C149.126 72.7083 149.391 73.1282 149.554 73.5906C149.718 74.0529 149.776 74.546 149.724 75.0337L148.738 84.8978C148.519 86.2694 147.852 87.5297 146.84 88.4816C145.829 89.4335 144.53 90.0233 143.148 90.1587Z" fill="#63737A"/>
<path d="M178.659 203.594L79.3602 206.553C78.3954 206.558 77.4403 206.36 76.5567 205.972C75.673 205.585 74.8803 205.017 74.2297 204.304C73.5791 203.592 73.0849 202.751 72.7793 201.836C72.4737 200.92 72.3633 199.951 72.4552 198.991L77.7162 147.04C77.9312 144.877 78.9099 142.861 80.4767 141.355C82.0434 139.849 84.0955 138.95 86.2651 138.82L186.222 133.887C187.202 133.827 188.184 133.987 189.094 134.355C190.004 134.724 190.821 135.292 191.483 136.017C192.145 136.742 192.637 137.607 192.921 138.547C193.206 139.487 193.276 140.479 193.127 141.45L187.208 195.374C187.047 197.557 186.086 199.604 184.508 201.121C182.93 202.638 180.847 203.519 178.659 203.594Z" fill="#2FA4A1"/>
<path d="M331.88 198.991L223.046 202.279C222.081 202.283 221.126 202.085 220.242 201.698C219.359 201.311 218.566 200.742 217.915 200.03C217.265 199.317 216.77 198.476 216.465 197.561C216.159 196.646 216.049 195.677 216.141 194.716L222.059 139.806C222.274 137.643 223.253 135.628 224.82 134.121C226.386 132.615 228.439 131.716 230.608 131.586L340.429 126.325C341.409 126.264 342.391 126.424 343.301 126.793C344.212 127.161 345.028 127.729 345.691 128.455C346.353 129.18 346.844 130.044 347.128 130.985C347.413 131.925 347.483 132.917 347.334 133.888L340.758 190.771C340.47 192.961 339.424 194.982 337.803 196.483C336.182 197.985 334.086 198.872 331.88 198.991Z" fill="#FFC84D"/>
<path d="M498.587 194.052L378.573 197.669C377.6 197.7 376.633 197.52 375.736 197.142C374.84 196.764 374.036 196.196 373.38 195.477C372.724 194.758 372.231 193.906 371.936 192.979C371.64 192.052 371.549 191.072 371.668 190.107L378.573 132.237C378.843 130.096 379.839 128.112 381.395 126.616C382.95 125.12 384.972 124.203 387.122 124.017L507.793 118.098C508.774 118.038 509.755 118.198 510.665 118.566C511.576 118.935 512.392 119.503 513.055 120.228C513.717 120.953 514.208 121.818 514.493 122.758C514.777 123.698 514.847 124.69 514.698 125.661L507.135 185.832C506.92 187.995 505.942 190.01 504.375 191.517C502.808 193.023 500.756 193.922 498.587 194.052Z" fill="#E7A5C8"/>
<path d="M203.974 477.152L453.208 488.332C457.549 488.453 461.785 486.982 465.116 484.195C468.447 481.409 470.644 477.501 471.293 473.207L498.912 255.538C499.241 253.081 499.033 250.581 498.302 248.212C497.571 245.842 496.334 243.66 494.677 241.816C493.02 239.971 490.982 238.508 488.705 237.528C486.427 236.548 483.964 236.074 481.486 236.139L226.662 241.071C222.436 241.178 218.388 242.796 215.251 245.631C212.115 248.466 210.097 252.331 209.564 256.525L187.534 458.082C187.285 460.428 187.519 462.801 188.223 465.053C188.927 467.305 190.085 469.39 191.625 471.177C193.166 472.964 195.057 474.416 197.181 475.444C199.305 476.472 201.617 477.053 203.974 477.152V477.152Z" stroke="#63737A" stroke-width="1.8" stroke-linecap="round" stroke-linejoin="round"/>
<path d="M207.263 274.287L496.611 271.328" stroke="#63737A" stroke-width="1.8" stroke-linecap="round" stroke-linejoin="round"/>
<path d="M289.793 275.609L266.447 479.797" stroke="#63737A" stroke-width="1.8" stroke-linecap="round" stroke-linejoin="round"/>
<path d="M359.502 274.938L334.842 483.071" stroke="#63737A" stroke-width="1.8" stroke-linecap="round" stroke-linejoin="round"/>
<path d="M427.563 274.609L401.916 486.031" stroke="#63737A" stroke-width="1.8" stroke-linecap="round" stroke-linejoin="round"/>
<path d="M284.203 325.25L489.706 325.908" stroke="#63737A" stroke-width="1.8" stroke-linecap="round" stroke-linejoin="round"/>
<path d="M278.287 376.547L482.804 380.164" stroke="#63737A" stroke-width="1.8" stroke-linecap="round" stroke-linejoin="round"/>
<path d="M272.368 427.508L475.898 433.755" stroke="#63737A" stroke-width="1.8" stroke-linecap="round" stroke-linejoin="round"/>
<path d="M500.557 57.9304C500.33 60.0475 499.447 62.041 498.033 63.6325C496.618 65.224 494.742 66.3342 492.666 66.8081C488.72 67.1369 486.09 63.52 486.747 58.9168C486.974 56.7996 487.857 54.8062 489.272 53.2147C490.686 51.6232 492.563 50.513 494.639 50.0391C495.592 50.0491 496.531 50.2785 497.382 50.7095C498.232 51.1405 498.973 51.7615 499.545 52.5245C500.117 53.2874 500.506 54.1719 500.681 55.1094C500.857 56.0468 500.814 57.012 500.557 57.9304Z" fill="#63737A"/>
<path d="M468.335 60.2402C468.217 62.3599 467.365 64.3723 465.925 65.9322C464.485 67.4921 462.547 68.5022 460.444 68.7891C456.498 69.1179 453.868 65.5011 454.526 60.8978C454.643 58.7782 455.496 56.7657 456.936 55.2058C458.375 53.6459 460.313 52.6358 462.417 52.3489C466.363 52.0201 468.993 55.637 468.335 60.2402Z" fill="#63737A"/>
<path d="M436.769 62.2025C436.593 64.3023 435.72 66.2833 434.291 67.8317C432.862 69.3802 430.957 70.4076 428.878 70.7514C425.261 71.0802 422.631 67.4633 422.959 63.1889C423.136 61.089 424.008 59.1081 425.437 57.5596C426.867 56.0112 428.772 54.9837 430.851 54.6399C434.796 53.9823 437.098 57.5992 436.769 62.2025Z" fill="#63737A"/>
<path d="M161.674 307.72C162.635 307.784 163.596 307.961 164.558 308.251C174.037 310.933 178.615 321.656 174.027 330.341L122.887 426.836C121.219 430.017 118.771 432.606 115.864 434.445C115.506 434.66 115.117 434.872 114.759 435.087C111.357 436.945 107.427 437.801 103.387 437.445C95.0922 436.716 88.0758 430.923 85.8203 422.9L73.1352 378.097L68.7052 428.481C68.2697 433.433 65.8825 437.783 62.3253 440.705C58.824 443.694 54.1808 445.288 49.2504 444.886C39.2673 444.07 31.8948 434.61 32.7711 424.643L40.8112 333.201C41.5263 325.069 48.7152 319.077 56.8259 319.79L75.9549 321.472C81.9232 321.997 86.9648 326.045 88.7485 331.716L102.483 374.762C104.269 380.403 112.01 381.115 114.753 375.872L120.957 364.248L146.647 315.857C149.604 310.294 155.583 307.184 161.674 307.72Z" fill="url(#paint0_linear_1183_44812)"/>
<path d="M145.765 402.721L178.832 340.59C179.974 338.473 183.221 339.436 183.011 341.82L174.573 437.788C173.7 447.724 164.943 455.057 154.996 454.182C145.049 453.307 137.706 444.559 138.58 434.623L139.545 423.647C140.188 416.341 142.294 409.224 145.765 402.721Z" fill="#FFC84D"/>
<defs>
<linearGradient id="paint0_linear_1183_44812" x1="153.786" y1="433.219" x2="78.7868" y2="347.786" gradientUnits="userSpaceOnUse">
<stop stop-color="#228C92"/>
<stop offset="0.3" stop-color="#1A7277"/>
<stop offset="0.5" stop-color="#1D7577"/>
<stop offset="0.8" stop-color="#2A8F8D"/>
<stop offset="1" stop-color="#39ADA5"/>
</linearGradient>
</defs>
</svg>
