<svg width="605" height="533" viewBox="0 0 605 533" fill="none" xmlns="http://www.w3.org/2000/svg">
<path d="M93.0984 532.058L569.207 505.425C572.077 505.265 574.886 504.528 577.464 503.256C580.041 501.984 582.336 500.205 584.209 498.025C586.082 495.845 587.495 493.308 588.364 490.568C589.233 487.828 589.539 484.941 589.265 482.08L548.493 66.1419C547.804 59.5198 544.838 53.3423 540.1 48.6646C535.362 43.9869 529.148 41.0993 522.517 40.4952L23.3917 2.35379C20.2307 2.09126 17.051 2.54339 14.0883 3.67666C11.1257 4.80994 8.45612 6.59533 6.27722 8.90053C4.09833 11.2057 2.46594 13.9717 1.50128 16.9934C0.53656 20.0152 0.264282 23.2152 0.704346 26.3565L63.1772 507.398C64.1929 514.498 67.8245 520.964 73.3597 525.526C78.8949 530.088 85.9345 532.417 93.0984 532.058Z" fill="#63737A"/>
<path d="M106.251 532.068L584.661 505.434C587.541 505.303 590.363 504.583 592.954 503.321C595.546 502.058 597.852 500.279 599.73 498.092C601.609 495.906 603.02 493.358 603.878 490.606C604.736 487.854 605.022 484.956 604.719 482.089L563.947 64.1786C563.296 57.4861 560.298 51.2397 555.484 46.5456C550.669 41.8515 544.349 39.0127 537.642 38.5318L36.2151 0.061658C33.0452 -0.178718 29.8615 0.285644 26.8923 1.42141C23.9231 2.55717 21.2421 4.33618 19.0418 6.63073C16.8416 8.92528 15.1766 11.6784 14.1663 14.6927C13.1561 17.7069 12.8257 20.9074 13.1989 24.0644L76.0004 507.407C77.1925 514.488 80.9186 520.894 86.4841 525.431C92.0496 529.968 99.0747 532.327 106.251 532.068Z" fill="#312E3A"/>
<path d="M115.129 325.907L122.034 380.16L189.768 378.844L183.52 325.578L115.129 325.907Z" fill="#E7A5C8"/>
<path d="M251.253 325.25L257.5 377.53L326.549 376.543L320.959 325.25H251.253Z" fill="#2FA4A1"/>
<path d="M189.768 378.846L196.344 431.784L263.749 429.482L257.502 377.531L189.768 378.846Z" fill="#FFC84D"/>
<path d="M461.688 90.1587L517.914 93.4467C518.87 93.4381 519.785 93.0544 520.462 92.3779C521.138 91.7015 521.522 90.7865 521.53 89.8299L520.544 80.2945C520.342 78.9715 519.723 77.7476 518.776 76.8012C517.83 75.8549 516.606 75.2356 515.283 75.0337L458.729 71.4168C458.241 71.365 457.748 71.423 457.286 71.5864C456.823 71.7499 456.403 72.0147 456.057 72.3615C455.71 72.7083 455.445 73.1282 455.281 73.5906C455.118 74.0529 455.06 74.546 455.112 75.0337L456.098 84.8978C456.317 86.2694 456.984 87.5297 457.996 88.4816C459.007 89.4335 460.306 90.0233 461.688 90.1587Z" fill="#63737A"/>
<path d="M426.177 203.594L525.476 206.553C526.441 206.558 527.396 206.36 528.279 205.972C529.163 205.585 529.956 205.017 530.606 204.304C531.257 203.592 531.751 202.751 532.057 201.836C532.362 200.92 532.473 199.951 532.381 198.991L527.12 147.04C526.905 144.877 525.926 142.861 524.359 141.355C522.793 139.849 520.74 138.95 518.571 138.82L418.614 133.887C417.634 133.827 416.652 133.987 415.742 134.355C414.831 134.724 414.015 135.292 413.353 136.017C412.69 136.742 412.199 137.607 411.915 138.547C411.63 139.487 411.56 140.479 411.709 141.45L417.628 195.374C417.789 197.557 418.75 199.604 420.328 201.121C421.906 202.638 423.989 203.519 426.177 203.594Z" fill="#2FA4A1"/>
<path d="M272.956 198.991L381.791 202.279C382.755 202.283 383.711 202.085 384.594 201.698C385.478 201.311 386.271 200.742 386.921 200.03C387.572 199.317 388.066 198.476 388.372 197.561C388.677 196.646 388.788 195.677 388.696 194.716L382.777 139.806C382.562 137.643 381.583 135.628 380.017 134.121C378.45 132.615 376.398 131.716 374.228 131.586L264.408 126.325C263.427 126.264 262.446 126.424 261.535 126.793C260.625 127.161 259.808 127.729 259.146 128.455C258.484 129.18 257.992 130.044 257.708 130.985C257.424 131.925 257.353 132.917 257.503 133.888L264.079 190.771C264.367 192.961 265.412 194.982 267.034 196.483C268.655 197.985 270.75 198.872 272.956 198.991Z" fill="#FFC84D"/>
<path d="M106.249 194.052L226.263 197.669C227.236 197.7 228.203 197.52 229.1 197.142C229.996 196.764 230.8 196.196 231.456 195.477C232.112 194.758 232.605 193.906 232.9 192.979C233.196 192.052 233.287 191.072 233.168 190.107L226.263 132.237C225.993 130.096 224.997 128.112 223.441 126.616C221.886 125.12 219.864 124.203 217.714 124.017L97.0428 118.098C96.0624 118.038 95.081 118.198 94.1706 118.566C93.2601 118.935 92.4437 119.503 91.7814 120.228C91.1191 120.953 90.6277 121.818 90.3433 122.758C90.0589 123.698 89.9888 124.69 90.138 125.661L97.7004 185.832C97.9155 187.995 98.8942 190.01 100.461 191.517C102.028 193.023 104.08 193.922 106.249 194.052Z" fill="#E7A5C8"/>
<path d="M400.861 477.152L151.627 488.332C147.286 488.453 143.051 486.982 139.719 484.195C136.388 481.409 134.191 477.501 133.543 473.207L105.923 255.538C105.594 253.081 105.802 250.581 106.533 248.212C107.265 245.842 108.501 243.66 110.158 241.816C111.815 239.971 113.853 238.508 116.131 237.528C118.408 236.548 120.871 236.074 123.35 236.139L378.174 241.071C382.4 241.178 386.448 242.796 389.584 245.631C392.721 248.466 394.738 252.331 395.271 256.525L417.301 458.082C417.551 460.428 417.316 462.801 416.612 465.053C415.909 467.305 414.751 469.39 413.21 471.177C411.669 472.964 409.779 474.416 407.655 475.444C405.531 476.472 403.219 477.053 400.861 477.152V477.152Z" stroke="#63737A" stroke-width="1.8" stroke-linecap="round" stroke-linejoin="round"/>
<path d="M397.573 274.287L108.225 271.328" stroke="#63737A" stroke-width="1.8" stroke-linecap="round" stroke-linejoin="round"/>
<path d="M315.043 275.609L338.389 479.797" stroke="#63737A" stroke-width="1.8" stroke-linecap="round" stroke-linejoin="round"/>
<path d="M245.334 274.938L269.994 483.071" stroke="#63737A" stroke-width="1.8" stroke-linecap="round" stroke-linejoin="round"/>
<path d="M177.273 274.609L202.92 486.031" stroke="#63737A" stroke-width="1.8" stroke-linecap="round" stroke-linejoin="round"/>
<path d="M320.633 325.25L115.13 325.908" stroke="#63737A" stroke-width="1.8" stroke-linecap="round" stroke-linejoin="round"/>
<path d="M326.549 376.547L122.032 380.164" stroke="#63737A" stroke-width="1.8" stroke-linecap="round" stroke-linejoin="round"/>
<path d="M332.468 427.508L128.938 433.755" stroke="#63737A" stroke-width="1.8" stroke-linecap="round" stroke-linejoin="round"/>
<path d="M104.279 57.9304C104.506 60.0475 105.389 62.041 106.803 63.6325C108.218 65.224 110.094 66.3342 112.17 66.8081C116.116 67.1369 118.746 63.52 118.089 58.9168C117.861 56.7996 116.979 54.8062 115.564 53.2147C114.149 51.6232 112.273 50.513 110.197 50.0391C109.244 50.0491 108.305 50.2785 107.454 50.7095C106.604 51.1405 105.863 51.7615 105.291 52.5245C104.719 53.2874 104.33 54.1719 104.154 55.1094C103.979 56.0468 104.022 57.012 104.279 57.9304Z" fill="#63737A"/>
<path d="M136.501 60.2402C136.619 62.3599 137.471 64.3723 138.911 65.9322C140.351 67.4921 142.289 68.5022 144.392 68.7891C148.338 69.1179 150.968 65.5011 150.31 60.8978C150.192 58.7782 149.34 56.7657 147.9 55.2058C146.46 53.6459 144.522 52.6358 142.419 52.3489C138.473 52.0201 135.843 55.637 136.501 60.2402Z" fill="#63737A"/>
<path d="M168.067 62.2025C168.243 64.3023 169.115 66.2833 170.545 67.8317C171.974 69.3802 173.879 70.4076 175.958 70.7514C179.575 71.0802 182.205 67.4633 181.877 63.1889C181.7 61.089 180.828 59.1081 179.399 57.5596C177.969 56.0112 176.064 54.9837 173.985 54.6399C170.04 53.9823 167.738 57.5992 168.067 62.2025Z" fill="#63737A"/>
<path d="M443.161 307.72C442.201 307.784 441.239 307.961 440.278 308.251C430.798 310.933 426.22 321.656 430.808 330.341L481.949 426.836C483.616 430.017 486.064 432.606 488.971 434.445C489.329 434.66 489.718 434.872 490.076 435.087C493.478 436.945 497.409 437.801 501.449 437.445C509.743 436.716 516.76 430.923 519.015 422.9L531.7 378.097L536.13 428.481C536.566 433.433 538.953 437.783 542.51 440.705C546.011 443.694 550.655 445.288 555.585 444.886C565.568 444.07 572.941 434.61 572.064 424.643L564.024 333.201C563.309 325.069 556.12 319.077 548.01 319.79L528.881 321.472C522.912 321.997 517.871 326.045 516.087 331.716L502.353 374.762C500.566 380.403 492.826 381.115 490.082 375.872L483.879 364.248L458.188 315.857C455.231 310.294 449.252 307.184 443.161 307.72Z" fill="url(#paint0_linear_1183_45404)"/>
<path d="M459.07 402.721L426.003 340.59C424.86 338.473 421.614 339.436 421.824 341.82L430.262 437.788C431.135 447.724 439.892 455.057 449.839 454.182C459.786 453.307 467.129 444.559 466.255 434.623L465.29 423.647C464.647 416.341 462.541 409.224 459.07 402.721Z" fill="#FFC84D"/>
<defs>
<linearGradient id="paint0_linear_1183_45404" x1="451.05" y1="433.219" x2="526.049" y2="347.786" gradientUnits="userSpaceOnUse">
<stop stop-color="#228C92"/>
<stop offset="0.3" stop-color="#1A7277"/>
<stop offset="0.5" stop-color="#1D7577"/>
<stop offset="0.8" stop-color="#2A8F8D"/>
<stop offset="1" stop-color="#39ADA5"/>
</linearGradient>
</defs>
</svg>
