<svg width="108" height="153" viewBox="0 0 108 153" fill="none" xmlns="http://www.w3.org/2000/svg">
<circle cx="20.75" cy="66.5" r="86.5" fill="#E7A5C8"/>
<path d="M58.833 58.2487C58.833 69.5362 49.033 78.6654 36.958 78.6654L34.2455 81.932L32.6413 83.857C31.2705 85.4904 28.6455 85.1404 27.7413 83.1862L23.833 74.582C18.5247 70.8487 15.083 64.9279 15.083 58.2487C15.083 46.9612 24.883 37.832 36.958 37.832C45.7663 37.832 53.3788 42.7029 56.7913 49.7029C58.1038 52.2987 58.833 55.1862 58.833 58.2487Z" stroke="#312E3A" stroke-width="1.5" stroke-linecap="round" stroke-linejoin="round"/>
<path d="M29.667 58.249H44.2503M73.417 69.5073C73.417 76.1865 69.9753 82.1073 64.667 85.8406L60.7587 94.4448C59.8545 96.399 57.2295 96.7781 55.8587 95.1156L51.542 89.924C44.4837 89.924 38.1837 86.8031 34.2462 81.9323L36.9587 78.6656C49.0337 78.6656 58.8337 69.5365 58.8337 58.249C58.8337 55.1865 58.1045 52.299 56.792 49.7031C66.3295 51.8906 73.417 59.9406 73.417 69.5073Z" stroke="#312E3A" stroke-width="1.5" stroke-linecap="round" stroke-linejoin="round"/>
</svg>
