<svg width="631" height="536" viewBox="0 0 631 536" fill="none" xmlns="http://www.w3.org/2000/svg">
<path d="M590.365 344.202L509.3 79.7104C508.119 76.1864 505.849 73.1254 502.815 70.9659C499.781 68.8063 496.14 67.659 492.412 67.688L12.7816 81.153C10.9156 81.1725 9.07916 81.6198 7.41449 82.4603C5.74976 83.3008 4.30145 84.5119 3.18176 85.9998C2.06207 87.4877 1.30109 89.2124 0.957642 91.0405C0.614136 92.8685 0.69751 94.7508 1.20117 96.5416L95.2936 419.221C96.4306 423.161 98.9673 426.553 102.43 428.766C105.893 430.978 110.045 431.859 114.112 431.243L579.749 359.59C581.557 359.494 583.319 358.984 584.898 358.102C586.477 357.219 587.832 355.987 588.858 354.5C589.883 353.013 590.552 351.311 590.814 349.526C591.075 347.74 590.921 345.919 590.365 344.202Z" fill="#312E3A"/>
<path d="M594.709 357.672L873.608 383.64L395.426 500.978C383.863 503.869 371.764 503.869 360.201 500.978L100.603 434.134L594.709 357.672Z" fill="#63737A"/>
<path d="M394.942 500.971L873.125 383.633C873.093 388.03 871.611 392.295 868.908 395.771C866.206 399.246 862.431 401.74 858.167 402.869L407.488 522.13C388.463 527.104 368.433 526.771 349.585 521.168L113.147 451.92C109.188 450.786 105.717 448.378 103.273 445.073C100.829 441.768 99.5509 437.75 99.6367 433.646L359.235 500.49C370.89 503.766 383.203 503.931 394.942 500.971Z" fill="#312E3A"/>
<path d="M275.277 126.365L309.054 240.817C309.549 242.213 310.463 243.423 311.671 244.283C312.88 245.143 314.324 245.612 315.809 245.626L505.442 229.276C506.398 229.203 507.327 228.921 508.161 228.449C508.995 227.977 509.715 227.328 510.268 226.547C510.821 225.766 511.194 224.873 511.361 223.931C511.528 222.99 511.484 222.023 511.232 221.101L479.386 116.266C478.994 114.901 478.173 113.698 477.044 112.832C475.915 111.966 474.537 111.485 473.113 111.457L281.55 118.19C280.562 118.22 279.593 118.469 278.713 118.919C277.833 119.369 277.065 120.009 276.465 120.792C275.864 121.574 275.446 122.481 275.24 123.445C275.035 124.409 275.048 125.406 275.277 126.365Z" fill="#FDFDFE"/>
<path d="M421.963 287.457L435.957 330.737C436.451 332.198 437.451 333.435 438.777 334.228C440.103 335.021 441.669 335.318 443.195 335.065L534.392 323.043C535.328 322.955 536.232 322.657 537.035 322.171C537.839 321.685 538.522 321.024 539.033 320.237C539.544 319.45 539.869 318.559 539.985 317.629C540.1 316.699 540.003 315.755 539.7 314.868L527.636 274.473C527.141 273.078 526.228 271.868 525.019 271.007C523.811 270.147 522.366 269.678 520.881 269.664L427.754 279.282C426.756 279.243 425.765 279.453 424.87 279.893C423.975 280.333 423.205 280.989 422.63 281.801C422.054 282.614 421.692 283.557 421.575 284.545C421.459 285.533 421.592 286.534 421.963 287.457Z" fill="#FFC84D"/>
<path d="M279.135 301.883L294.576 349.492C295.071 350.952 296.07 352.189 297.396 352.982C298.722 353.775 300.288 354.072 301.814 353.82L388.668 342.278C389.638 342.156 390.568 341.818 391.389 341.289C392.211 340.76 392.901 340.054 393.411 339.223C393.921 338.391 394.237 337.456 394.335 336.487C394.432 335.517 394.31 334.538 393.976 333.622L379.5 288.899C379.06 287.504 378.143 286.307 376.909 285.516C375.674 284.726 374.201 284.391 372.745 284.571L284.926 293.227C283.913 293.281 282.928 293.57 282.047 294.07C281.167 294.57 280.416 295.268 279.853 296.109C279.291 296.949 278.934 297.909 278.809 298.911C278.684 299.914 278.796 300.931 279.135 301.883Z" fill="#2FA4A1"/>
<path d="M171.532 149.444C173.431 156.617 177.704 162.941 183.659 167.392C189.614 171.843 196.902 174.161 204.344 173.969C218.337 173.007 225.575 160.985 221.714 147.52C219.582 141.102 215.522 135.492 210.085 131.45C204.648 127.407 198.096 125.127 191.315 124.918C188.247 124.795 185.193 125.391 182.398 126.658C179.603 127.924 177.145 129.827 175.221 132.211C173.298 134.596 171.962 137.398 171.321 140.39C170.68 143.383 170.753 146.484 171.532 149.444Z" fill="#FFC84D"/>
<path d="M247.289 224.934L96.2587 235.513" stroke="#63737A" stroke-width="1.8" stroke-linecap="round" stroke-linejoin="round"/>
<path d="M79.5232 180.253C79.5222 178.063 80.1729 175.922 81.3931 174.1C82.6133 172.279 84.3481 170.859 86.3781 170.02C88.4081 169.181 90.6421 168.961 92.7976 169.388C94.953 169.815 96.9331 170.869 98.4873 172.417C100.042 173.965 101.1 175.938 101.529 178.086C101.958 180.234 101.739 182.461 100.898 184.484C100.057 186.508 98.6332 188.237 96.8061 189.454C94.9789 190.671 92.8307 191.321 90.6332 191.321C89.1705 191.335 87.7196 191.059 86.3654 190.508C85.0112 189.957 83.7808 189.143 82.7462 188.112C81.7117 187.081 80.8938 185.856 80.3404 184.506C79.787 183.157 79.5091 181.711 79.5232 180.253Z" fill="#2FA4A1"/>
<path d="M25.9582 60.1362C25.3284 68.9489 26.5114 77.7968 29.4347 86.1376C32.3579 94.4784 36.9598 102.136 42.9582 108.642C55.3611 122.023 62.238 139.578 62.2132 157.795V169.186C62.2495 172.197 63.4661 175.074 65.6029 177.203C67.7397 179.331 70.6271 180.543 73.6482 180.578H106.963C109.983 180.541 112.87 179.33 115.005 177.201C117.141 175.073 118.357 172.196 118.393 169.186V157.795C118.393 139.562 125.253 121.986 137.663 108.961C148.84 97.0443 155.033 81.3264 154.978 65.0146C154.978 27.9105 123.293 -2.03786 85.7132 0.568302C54.0482 2.52167 28.2432 28.2344 25.9582 60.1362Z" fill="#FFC84D"/>
<path d="M118.718 157.793H62.5433" stroke="#312E3A" stroke-width="5.88" stroke-linecap="round" stroke-linejoin="round"/>
<path d="M118.718 168.863H62.5433" stroke="#312E3A" stroke-width="5.88" stroke-linecap="round" stroke-linejoin="round"/>
<path d="M96.508 157.797V68.5995C96.508 60.4571 105.653 55.5786 112.508 60.1282C117.738 63.711 118.388 71.5196 113.508 76.0741L109.588 79.6569" stroke="#312E3A" stroke-width="5.88" stroke-linecap="round" stroke-linejoin="round"/>
<path d="M84.7532 157.797V68.5995C84.7532 60.4571 75.6082 55.5786 68.7532 60.1282C63.5282 63.711 62.8732 71.5196 67.7532 76.0741L71.6732 79.6569" stroke="#312E3A" stroke-width="5.88" stroke-linecap="round" stroke-linejoin="round"/>
<path d="M359.49 120.508C358.744 120.566 357.998 120.71 357.253 120.943C349.906 123.099 346.441 131.453 350.086 138.154L390.707 212.6C392.032 215.054 393.959 217.043 396.236 218.446C396.516 218.61 396.82 218.772 397.101 218.936C399.762 220.35 402.826 220.983 405.965 220.675C412.408 220.043 417.812 215.494 419.495 209.252L428.961 174.398L432.853 213.446C433.235 217.284 435.13 220.639 437.922 222.878C440.671 225.168 444.296 226.368 448.126 226.017C455.881 225.304 461.53 217.908 460.76 210.184L453.697 139.315C453.069 133.012 447.426 128.421 441.125 129.039L426.266 130.495C421.63 130.95 417.746 134.13 416.409 138.543L406.111 172.044C404.772 176.434 398.76 177.047 396.58 173.002L391.653 164.034L371.247 126.701C368.899 122.409 364.222 120.045 359.49 120.508Z" fill="url(#paint0_linear_470_32829)"/>
<path d="M372.668 194.09L346.423 146.182C345.516 144.549 343.001 145.323 343.185 147.17L350.576 221.516C351.341 229.214 358.212 234.829 365.937 234.069C373.662 233.31 379.295 226.467 378.529 218.769L377.684 210.267C377.121 204.606 375.422 199.105 372.668 194.09Z" fill="#FFC84D"/>
<path d="M167.199 531.018L265.042 511.081C266.651 510.747 268.178 510.098 269.533 509.172C270.889 508.245 272.046 507.059 272.938 505.683C273.829 504.307 274.438 502.768 274.728 501.156C275.018 499.544 274.984 497.89 274.627 496.291L231.104 296.588C230.341 293.251 228.402 290.298 225.639 288.266C222.876 286.234 219.473 285.257 216.049 285.515L114.196 293.603C112.434 293.758 110.725 294.285 109.182 295.148C107.639 296.011 106.298 297.191 105.247 298.609C104.197 300.028 103.461 301.653 103.088 303.377C102.715 305.101 102.714 306.883 103.085 308.608L150.109 520.23C151.023 523.87 153.308 527.021 156.489 529.029C159.671 531.038 163.505 531.749 167.199 531.018Z" fill="#312E3A"/>
<path d="M174.067 530.049L271.91 510.112C273.519 509.778 275.046 509.129 276.401 508.203C277.756 507.276 278.914 506.091 279.805 504.715C280.697 503.339 281.306 501.8 281.596 500.187C281.886 498.575 281.851 496.921 281.495 495.322L237.971 295.62C237.209 292.283 235.27 289.329 232.507 287.297C229.744 285.265 226.341 284.289 222.916 284.546L121.064 292.635C119.302 292.789 117.592 293.316 116.05 294.179C114.507 295.042 113.166 296.222 112.115 297.641C111.064 299.059 110.328 300.684 109.956 302.408C109.583 304.132 109.582 305.915 109.953 307.639L156.976 519.261C157.891 522.902 160.176 526.052 163.357 528.061C166.538 530.069 170.373 530.781 174.067 530.049Z" fill="#596773"/>
<path d="M173.747 309.282L192.715 307.654C193.058 307.629 193.392 307.531 193.694 307.367C193.996 307.203 194.259 306.976 194.466 306.702C194.673 306.428 194.819 306.113 194.894 305.779C194.969 305.444 194.971 305.098 194.901 304.762C194.79 304.025 194.394 303.361 193.796 302.913C193.199 302.465 192.45 302.269 191.709 302.366L172.741 303.994C172.398 304.019 172.064 304.117 171.762 304.281C171.46 304.445 171.197 304.672 170.99 304.946C170.783 305.22 170.637 305.534 170.562 305.869C170.487 306.204 170.485 306.55 170.555 306.886C170.666 307.623 171.062 308.286 171.659 308.735C172.257 309.183 173.006 309.379 173.747 309.282Z" fill="#312E3A"/>
<path d="M162.738 310.324L163.247 310.253C163.59 310.228 163.923 310.13 164.225 309.965C164.527 309.801 164.79 309.575 164.997 309.301C165.204 309.027 165.35 308.712 165.425 308.378C165.5 308.043 165.503 307.696 165.432 307.361C165.227 306.601 164.773 305.931 164.142 305.457C163.511 304.984 162.739 304.734 161.95 304.747L161.441 304.818C161.098 304.844 160.764 304.942 160.462 305.106C160.16 305.27 159.897 305.497 159.69 305.771C159.483 306.044 159.337 306.359 159.262 306.694C159.187 307.028 159.185 307.375 159.255 307.711C159.461 308.471 159.915 309.141 160.546 309.614C161.177 310.088 161.948 310.338 162.738 310.324Z" fill="#312E3A"/>
<path d="M197.081 340.401L222.373 337.627C222.989 337.549 223.581 337.341 224.109 337.015C224.637 336.69 225.089 336.256 225.434 335.742C225.78 335.228 226.01 334.646 226.111 334.035C226.212 333.425 226.18 332.8 226.017 332.203C225.7 330.922 224.95 329.79 223.892 328.996C222.835 328.203 221.536 327.797 220.213 327.847L194.885 330.367C194.269 330.445 193.678 330.653 193.149 330.978C192.621 331.304 192.169 331.738 191.824 332.252C191.479 332.766 191.248 333.348 191.147 333.958C191.047 334.569 191.079 335.194 191.241 335.791C191.467 337.144 192.19 338.366 193.269 339.218C194.349 340.07 195.707 340.491 197.081 340.401Z" fill="#312E3A"/>
<path d="M216.019 426.682L240.913 422.93C241.511 422.813 242.079 422.58 242.585 422.244C243.092 421.908 243.527 421.475 243.865 420.971C244.204 420.467 244.439 419.902 244.558 419.307C244.677 418.713 244.677 418.1 244.557 417.506C244.236 416.254 243.481 415.155 242.425 414.404C241.37 413.653 240.082 413.299 238.789 413.403L213.895 417.155C213.288 417.252 212.707 417.472 212.19 417.802C211.672 418.133 211.228 418.566 210.886 419.075C210.544 419.584 210.312 420.158 210.202 420.761C210.093 421.364 210.109 421.983 210.251 422.579C210.528 423.855 211.272 424.983 212.339 425.742C213.405 426.501 214.718 426.836 216.019 426.682Z" fill="#312E3A"/>
<path d="M231.32 496.425L256.071 491.658C256.686 491.53 257.269 491.28 257.786 490.923C258.303 490.566 258.742 490.109 259.079 489.58C259.415 489.05 259.642 488.459 259.745 487.841C259.848 487.223 259.825 486.59 259.679 485.981C259.451 484.751 258.752 483.657 257.73 482.932C256.707 482.207 255.441 481.907 254.201 482.096L229.414 486.608C228.788 486.716 228.191 486.953 227.663 487.305C227.134 487.656 226.686 488.114 226.346 488.649C226.006 489.184 225.782 489.784 225.689 490.411C225.596 491.037 225.636 491.676 225.806 492.286C225.986 493.563 226.669 494.717 227.703 495.493C228.737 496.27 230.038 496.605 231.32 496.425Z" fill="#312E3A"/>
<path d="M158.954 402.889L233.271 392.718C234.018 392.616 234.736 392.36 235.377 391.965C236.019 391.571 236.57 391.046 236.996 390.426C237.422 389.806 237.712 389.104 237.849 388.365C237.986 387.627 237.965 386.867 237.79 386.137L230.951 354.26C230.674 352.983 229.929 351.856 228.863 351.097C227.796 350.338 226.484 350.003 225.182 350.157L150.36 358.589C149.613 358.69 148.895 358.947 148.254 359.341C147.612 359.736 147.061 360.26 146.635 360.88C146.21 361.5 145.919 362.202 145.782 362.941C145.646 363.68 145.666 364.439 145.842 365.17L153.15 398.532C153.34 399.877 154.058 401.091 155.147 401.908C156.235 402.726 157.605 403.078 158.954 402.889Z" fill="#2FA4A1"/>
<path d="M223.924 469.784L249.22 465.2C249.944 465.074 250.634 464.801 251.247 464.397C251.86 463.993 252.383 463.468 252.784 462.854C253.184 462.239 253.452 461.549 253.573 460.827C253.693 460.104 253.663 459.365 253.484 458.655L249.235 439.601C249.108 438.939 248.852 438.309 248.481 437.746C248.109 437.184 247.63 436.7 247.07 436.322C246.511 435.944 245.882 435.68 245.22 435.544C244.558 435.409 243.876 435.405 243.212 435.533L217.591 439.646C216.122 439.933 214.824 440.783 213.979 442.015C213.134 443.246 212.808 444.759 213.072 446.227L217.393 465.788C217.818 467.125 218.712 468.265 219.912 468.999C221.111 469.732 222.536 470.011 223.924 469.784Z" fill="#FFC84D"/>
<path d="M175.806 478.091L202.882 473.257C203.606 473.132 204.296 472.858 204.909 472.454C205.523 472.051 206.046 471.525 206.446 470.911C206.846 470.297 207.115 469.607 207.235 468.884C207.356 468.162 207.325 467.422 207.146 466.712L202.79 446.898C202.663 446.236 202.407 445.606 202.035 445.043C201.664 444.48 201.185 443.996 200.625 443.619C200.066 443.241 199.437 442.977 198.775 442.841C198.113 442.706 197.431 442.702 196.767 442.83L169.365 447.193C167.896 447.48 166.599 448.33 165.753 449.561C164.908 450.792 164.582 452.305 164.846 453.774L169.274 474.096C169.69 475.439 170.583 476.585 171.785 477.32C172.987 478.055 174.416 478.33 175.806 478.091Z" fill="#E7A5C8"/>
<defs>
<linearGradient id="paint0_linear_470_32829" x1="366.738" y1="217.797" x2="424.149" y2="150.803" gradientUnits="userSpaceOnUse">
<stop stop-color="#228C92"/>
<stop offset="0.3" stop-color="#1A7277"/>
<stop offset="0.5" stop-color="#1D7577"/>
<stop offset="0.8" stop-color="#2A8F8D"/>
<stop offset="1" stop-color="#39ADA5"/>
</linearGradient>
</defs>
</svg>
