<svg width="108" height="153" viewBox="0 0 108 153" fill="none" xmlns="http://www.w3.org/2000/svg">
<circle cx="21" cy="66.5" r="86.5" fill="#FFC84D"/>
<path d="M29.9173 55.7148H21.1673C17.959 55.7148 15.334 53.0898 15.334 49.8815V44.0482C15.334 40.8398 17.959 38.2148 21.1673 38.2148H29.9173C33.1257 38.2148 35.7506 40.8398 35.7506 44.0482V49.8815C35.7506 53.0898 33.1257 55.7148 29.9173 55.7148ZM70.1673 52.7982H59.6673C57.7423 52.7982 56.1673 51.2232 56.1673 49.2982V44.6315C56.1673 42.7065 57.7423 41.1315 59.6673 41.1315H70.1673C72.0923 41.1315 73.6673 42.7065 73.6673 44.6315V49.2982C73.6673 51.2232 72.0923 52.7982 70.1673 52.7982ZM70.1673 74.6732H59.6673C57.7423 74.6732 56.1673 73.0982 56.1673 71.1732V66.5065C56.1673 64.5815 57.7423 63.0065 59.6673 63.0065H70.1673C72.0923 63.0065 73.6673 64.5815 73.6673 66.5065V71.1732C73.6673 73.0982 72.0923 74.6732 70.1673 74.6732Z" stroke="#312E3A" stroke-width="1.5" stroke-linecap="round" stroke-linejoin="round"/>
<path d="M35.75 46.9648H56.1667" stroke="#312E3A" stroke-width="1.5" stroke-miterlimit="10" stroke-linecap="round" stroke-linejoin="round"/>
<path d="M45.959 46.9648V84.8815C45.959 88.0898 48.584 90.7148 51.7923 90.7148H56.1673M45.959 68.8398H56.1673" stroke="#312E3A" stroke-width="1.5" stroke-miterlimit="10" stroke-linecap="round" stroke-linejoin="round"/>
<path d="M70.167 96.5495H59.667C57.742 96.5495 56.167 94.9745 56.167 93.0495V88.3828C56.167 86.4578 57.742 84.8828 59.667 84.8828H70.167C72.092 84.8828 73.667 86.4578 73.667 88.3828V93.0495C73.667 94.9745 72.092 96.5495 70.167 96.5495Z" stroke="#312E3A" stroke-width="1.5" stroke-linecap="round" stroke-linejoin="round"/>
</svg>
