<svg width="443" height="40" viewBox="0 0 443 40" fill="none" xmlns="http://www.w3.org/2000/svg">
<path fill-rule="evenodd" clip-rule="evenodd" d="M265.023 18.2696C206.201 18.98 147.349 21.7984 88.7834 26.8361C60.9392 29.2316 28.6038 28.9322 1.59838 37.0993C0.252767 37.5103 0.509034 38.7433 0.538159 38.8666C0.596411 39.1191 0.84113 39.9587 1.91296 39.9998C2.02946 40.0057 2.85075 39.8882 3.16531 39.8471C11.1399 38.7903 19.0855 37.5574 27.0659 36.5592C54.6189 33.1009 82.2534 30.4881 109.929 28.1983C146.662 25.1569 183.71 23.5363 220.542 22.2681C240.703 21.5753 261.348 22.497 281.572 21.0644C289 21.0233 296.427 21.0176 303.854 21.041C334.902 21.1526 365.915 22.3386 396.91 23.965C406.877 24.4876 414.479 25.0512 424.236 25.4329C427.941 25.5797 433.818 25.6795 437.908 25.7441C438.508 25.7558 440.04 25.7674 440.675 25.7733C440.739 25.7851 440.803 25.7851 440.873 25.7851C441.117 25.7851 441.234 25.7674 441.257 25.7674C442.644 25.5619 442.515 24.2409 442.481 24.0413C442.475 24.0002 442.265 22.8846 441.071 22.8435C440.785 22.8317 438.741 22.8201 437.954 22.8084C433.888 22.7438 428.034 22.6439 424.347 22.503C414.607 22.1214 407.011 21.5577 397.062 21.0352C366.02 19.4088 334.96 18.2169 303.865 18.1053C300.067 18.0936 296.263 18.0877 292.465 18.0936C292.337 17.7589 292.052 17.3831 291.423 17.2187C290.835 17.0661 286.623 16.9311 284.998 16.796C272.969 15.7979 273.324 15.8448 260.089 15.0287C240.045 13.7898 236.993 13.5079 216.144 12.9853C178.275 12.0341 140.388 12.1106 102.513 12.2045C83.8145 12.2573 63.7934 13.5314 44.8093 11.1535C51.0655 10.4137 57.345 9.87354 63.6129 9.25704C85.0145 7.15506 106.434 5.85154 127.923 4.9356C179.469 2.73968 231.098 1.8649 282.627 4.85934C271.658 4.96502 260.695 5.21155 249.726 5.37008C205.077 6.02768 159.996 5.53453 115.439 8.94583C114.641 9.01042 114.041 9.71495 114.099 10.5193C114.158 11.3296 114.863 11.9344 115.661 11.8757C160.159 8.46437 205.176 8.9634 249.767 8.30579C266.334 8.06507 282.895 7.63062 299.461 7.75979C305.147 7.80676 310.832 8.01817 316.518 8.08863C317.642 8.10624 320.537 8.32935 320.951 8.23541C321.865 8.02991 322.063 7.34878 322.121 7.01411C322.15 6.81448 322.244 5.66368 320.846 5.25268C311.304 2.44613 293.695 2.5753 284.421 2.02339C232.257 -1.08847 179.988 -0.219523 127.8 1.99988C106.259 2.92169 84.7873 4.2311 63.3275 6.33895C55.8305 7.07288 48.3161 7.70699 40.8482 8.68165C39.6424 8.84018 36.9337 9.0692 35.6231 9.30993C35.0755 9.40974 34.6794 9.55056 34.5046 9.65038C33.8231 10.0379 33.7008 10.6016 33.7008 10.9832C33.6949 11.2768 33.8173 12.3101 35.2444 12.592C56.9897 16.884 80.6515 15.1989 102.519 15.1402C140.371 15.0463 178.229 14.9699 216.074 15.921C236.87 16.4436 239.911 16.7197 259.915 17.9585C261.889 18.076 263.561 18.1815 265.023 18.2696Z" fill="#FDFDFE"/>
</svg>
