<svg width="107" height="153" viewBox="0 0 107 153" fill="none" xmlns="http://www.w3.org/2000/svg">
<circle cx="20.5" cy="66.5" r="86.5" fill="#E7A5C8"/>
<path d="M42.4542 49.4987H57.0375M42.4542 84.4987H54.1208M42.4542 72.6862L57.0375 72.832M42.4542 61.1654H51.2042M33.6166 52.4154H16.3792M71.6208 87.4154V46.582C71.6208 40.7487 68.7041 37.832 62.8708 37.832H51.2042C45.3708 37.832 42.4542 40.7487 42.4542 46.582V87.4154C42.4542 93.2487 45.3708 96.1654 51.2042 96.1654H62.8708C68.7041 96.1654 71.6208 93.2487 71.6208 87.4154ZM25.0125 37.832C20.2583 37.832 16.3792 41.7112 16.3792 46.4362V84.2362C16.3792 85.5487 16.9333 87.532 17.6042 88.6695L19.9958 92.6362C22.7375 97.2154 27.2583 97.2154 30 92.6362L32.3917 88.6695C33.0625 87.532 33.6166 85.5487 33.6166 84.2362V46.4362C33.6166 41.7112 29.7375 37.832 25.0125 37.832Z" stroke="#312E3A" stroke-width="1.5" stroke-linecap="round"/>
</svg>
